HIERARCHY
ROOT Hips
{
	OFFSET 0.000000 0.000000 0.000000 
	CHANNELS 6 Xposition Yposition Zposition Zrotation Yrotation Xrotation
	JOINT LeftUpLeg
	{
		OFFSET 1.363060 -1.794630 0.839290 
		CHANNELS 3 Zrotation Yrotation Xrotation
		JOINT LeftLeg
		{
			OFFSET 2.448110 -6.726130 0.000000 
			CHANNELS 3 Zrotation Yrotation Xrotation
			JOINT LeftFoot
			{
				OFFSET 2.562200 -7.039590 0.000000 
				CHANNELS 3 Zrotation Yrotation Xrotation
				JOINT LeftToeBase
				{
					OFFSET 0.157640 -0.433110 2.322550 
					CHANNELS 3 Zrotation Yrotation Xrotation
					End Site
					{
						OFFSET 0.000000 0.000000 0.000000 
					}
				}
			}
		}
	}
	JOINT RightUpLeg
	{
		OFFSET -1.305520 -1.794630 0.839290 
		CHANNELS 3 Zrotation Yrotation Xrotation
		JOINT RightLeg
		{
			OFFSET -2.542530 -6.985550 0.000000 
			CHANNELS 3 Zrotation Yrotation Xrotation
			JOINT RightFoot
			{
				OFFSET -2.568260 -7.056230 0.000000 
				CHANNELS 3 Zrotation Yrotation Xrotation
				JOINT RightToeBase
				{
					OFFSET -0.164730 -0.452590 2.363150 
					CHANNELS 3 Zrotation Yrotation Xrotation
					End Site
					{
						OFFSET 0.000000 0.000000 0.000000 
					}
				}
			}
		}
	}
	JOINT Spine
	{
		OFFSET 0.028270 2.035590 -0.193380 
		CHANNELS 3 Zrotation Yrotation Xrotation
		JOINT Spine1
		{
			OFFSET 0.056720 2.048850 -0.042750 
			CHANNELS 3 Zrotation Yrotation Xrotation
			JOINT Neck1
			{
				OFFSET -0.054170 1.746240 0.172020 
				CHANNELS 3 Zrotation Yrotation Xrotation
				JOINT Head
				{
					OFFSET 0.104070 1.761360 -0.123970 
					CHANNELS 3 Zrotation Yrotation Xrotation
					End Site
					{
						OFFSET 0.000000 0.000000 0.000000 
					}
				}
			}
			JOINT LeftArm
			{
				OFFSET 3.362410 1.200890 -0.311210 
				CHANNELS 3 Zrotation Yrotation Xrotation
				JOINT LeftForeArm
				{
					OFFSET 4.983000 -0.000000 -0.000000 
					CHANNELS 3 Zrotation Yrotation Xrotation
					JOINT LeftHand
					{
						OFFSET 3.483560 -0.000000 -0.000000 
						CHANNELS 3 Zrotation Yrotation Xrotation
						JOINT LeftHandIndex1
						{
							OFFSET 0.715260 -0.000000 -0.000000 
							CHANNELS 3 Zrotation Yrotation Xrotation
							End Site
							{
								OFFSET 0.000000 0.000000 0.000000 
							}
						}
					}
				}
			}
			JOINT RightArm
			{
				OFFSET -3.136600 1.374050 -0.404650 
				CHANNELS 3 Zrotation Yrotation Xrotation
				JOINT RightForeArm
				{
					OFFSET -5.241900 -0.000000 -0.000000 
					CHANNELS 3 Zrotation Yrotation Xrotation
					JOINT RightHand
					{
						OFFSET -3.444170 -0.000000 -0.000000 
						CHANNELS 3 Zrotation Yrotation Xrotation
						JOINT RightHandIndex1
						{
							OFFSET -0.622530 -0.000000 -0.000000 
							CHANNELS 3 Zrotation Yrotation Xrotation
							End Site
							{
								OFFSET 0.000000 0.000000 0.000000 
							}
						}
					}
				}
			}
		}
	}
}
MOTION
Frames: 17
Frame Time: 0.041667
1.531119 16.273466 12.359446 166.637451 -6.041853 -133.433228 -52.145277 -31.551559 -13.268237 5.951997 12.543164 46.904025 -4.323115 -31.214450 -50.892415 1.919200 -8.695600 -24.847800 -10.464031 37.212425 -82.422765 -4.663967 -8.893881 23.778994 -10.039258 -15.393868 -44.465964 -1.069800 6.575100 -18.462500 -16.282348 -11.409175 -25.899630 1.406585 -5.730641 23.366578 2.035849 -8.701745 49.986217 -0.330500 -2.550200 7.894800 -97.781829 10.218228 19.464758 37.110490 -38.300164 -10.405760 0.669865 0.679285 -15.180953 -7.125000 0.000000 0.000000 106.220617 -16.174075 -2.103827 -26.020261 32.969824 -5.392923 -0.596059 -4.385355 2.683019 7.125000 0.000000 0.000000 
1.560993 16.297690 12.310806 166.670132 -5.682401 -132.362695 -51.983296 -31.716701 -14.041637 5.942657 12.561304 46.538299 -4.394057 -30.896980 -50.591322 2.042200 -8.953500 -25.650100 -11.320724 36.843179 -83.281544 -4.490847 -8.829183 23.563431 -10.153393 -16.007971 -44.250436 -1.184000 6.905500 -19.435800 -13.127018 -11.443475 -29.241351 0.914171 -6.052808 23.774119 1.113767 -7.731132 47.688500 -0.234900 -2.319700 7.386100 -98.427719 10.779435 19.662384 36.828923 -37.941535 -10.265334 0.658819 0.657514 -14.832044 -7.125000 0.000000 0.000000 105.455451 -16.731581 -0.223531 -27.225427 34.127974 -5.882516 -0.473619 -4.357812 0.852873 7.125000 0.000000 0.000000 
1.590866 16.320766 12.257665 166.605558 -5.551314 -131.431028 -51.928340 -31.863771 -14.625515 5.922824 12.527625 46.114273 -4.494118 -30.706950 -50.285363 2.166400 -9.204400 -26.436800 -12.388704 36.543204 -83.925106 -4.322609 -8.715446 23.199055 -10.302457 -16.765958 -44.520858 -1.084500 6.618800 -18.590800 -9.825527 -11.400007 -32.167201 0.301995 -6.435186 24.686048 0.326321 -6.471787 42.997483 -0.062400 -1.924700 6.451800 -99.060485 11.402963 19.711635 36.678276 -37.649581 -10.176275 0.639124 0.638943 -14.074369 -7.125000 0.000000 0.000000 104.669192 -17.369223 1.926529 -28.507896 35.276287 -6.437502 -0.327965 -4.336936 -0.782431 7.125000 0.000000 0.000000 
1.620644 16.341447 12.203663 166.117329 -5.564752 -130.872942 -51.817458 -32.131992 -15.144632 5.918512 12.480258 45.669766 -4.703146 -30.582104 -49.756131 2.272100 -9.411200 -27.090300 -13.656563 36.312152 -84.441795 -4.112237 -8.523757 22.596923 -10.479529 -17.609199 -45.123738 -0.754300 5.547000 -15.475500 -10.743180 -11.807750 -29.920843 0.071711 -6.377703 24.218725 1.282693 -7.141169 44.994754 -0.058500 -2.097200 6.934800 -98.075497 10.555505 20.709881 36.396338 -37.360852 -9.969685 0.610518 0.606553 -12.980973 -7.125000 0.000000 0.000000 104.934598 -16.658625 2.451673 -29.383133 36.438803 -6.881787 -0.142156 -4.216580 -1.840536 7.125000 0.000000 0.000000 
1.651092 16.359927 12.150331 165.747913 -5.670995 -130.083091 -51.574126 -32.463332 -15.833183 5.896231 12.386847 45.131530 -5.875269 -31.540112 -47.797920 1.198300 -6.945700 -19.554600 -14.876987 35.996135 -84.959216 -3.867194 -8.306444 21.871167 -10.657423 -18.654315 -45.573136 -0.501600 4.540400 -12.602300 -10.906271 -12.128371 -29.791898 -0.038043 -6.444022 24.579642 0.546338 -6.570841 41.979961 -0.194800 -1.975500 6.409300 -97.363343 10.007082 21.945975 36.126452 -37.022069 -9.795924 0.608003 0.572426 -11.696011 -7.125000 0.000000 0.000000 105.243530 -16.389973 2.817563 -30.216125 37.459062 -7.327933 0.129244 -4.127531 -2.923894 7.125000 0.000000 0.000000 
1.679530 16.375438 12.096137 165.355288 -5.730938 -129.594882 -51.547732 -32.708539 -16.197329 5.920950 12.254858 44.509544 -7.035818 -32.350019 -45.690953 0.247000 -3.198400 -8.831500 -15.896488 35.599259 -85.390251 -3.665103 -8.230565 21.512478 -10.749321 -19.354613 -45.752167 -0.428200 4.199400 -11.638400 -10.908772 -12.356022 -28.609387 -0.350390 -6.420922 24.725767 0.626963 -6.455557 40.428579 -0.201000 -1.947400 6.198200 -96.476595 9.141081 23.088890 35.904439 -36.747519 -9.638991 0.592595 0.538996 -10.384308 -7.125000 0.000000 0.000000 105.448874 -15.838436 3.173813 -30.838449 38.178159 -7.655466 0.177758 -4.052785 -3.782662 7.125000 0.000000 0.000000 
1.708542 16.389035 12.042039 165.093760 -5.683582 -129.124449 -51.674441 -32.701031 -16.293053 5.956255 12.128928 43.947306 -7.595625 -32.559969 -44.519272 0.023500 -0.989700 -2.720400 -16.495807 35.146742 -85.715892 -3.576889 -8.292210 21.490403 -10.739584 -19.464387 -45.925626 -0.407500 4.098000 -11.352400 -9.827560 -12.284843 -29.066777 -0.616727 -6.467687 24.400973 1.056781 -6.548977 40.612645 -0.089900 -1.953800 6.224700 -95.974923 8.437498 24.166243 35.531979 -36.406409 -9.429199 0.549718 0.480516 -8.499213 -7.125000 0.000000 0.000000 105.419723 -16.042960 3.619146 -31.565148 38.901215 -8.024722 0.079479 -4.026443 -4.543498 7.125000 0.000000 0.000000 
1.738607 16.403014 11.988516 164.824259 -5.644416 -128.982585 -51.932939 -32.294670 -15.918047 6.005486 11.936882 43.309190 -7.754104 -32.391205 -44.004066 0.003500 -0.382800 -1.051700 -16.607141 35.052471 -85.731587 -3.580451 -8.307915 21.482845 -10.721988 -19.329926 -46.168247 -0.365600 3.884000 -10.750600 -10.316809 -12.376773 -28.654550 -0.731078 -6.386338 23.741835 2.508551 -7.458838 42.125453 0.037900 -2.157500 6.447500 -95.078675 7.604425 25.493405 35.077896 -36.009854 -9.168416 0.520197 0.417159 -6.687798 -7.125000 0.000000 0.000000 105.748788 -16.295036 3.793031 -32.076241 39.498868 -8.318760 0.088171 -3.980520 -5.229366 7.125000 0.000000 0.000000 
1.766565 16.414599 11.936715 164.812300 -5.625828 -128.789227 -52.032464 -31.878434 -15.671425 6.046108 11.764567 42.656462 -7.513406 -31.776549 -44.136231 0.034200 -1.194100 -3.283100 -16.336905 34.896561 -85.856879 -3.651491 -8.452395 21.797166 -10.633262 -18.940612 -46.133357 -0.360800 3.858800 -10.679700 -9.604297 -12.205713 -28.821942 -0.967444 -6.284717 23.610507 2.283711 -7.172443 40.426966 0.024400 -2.096500 6.130700 -94.403088 6.783797 26.547189 34.857256 -35.799663 -9.046694 0.503247 0.376654 -5.261273 -7.125000 0.000000 0.000000 105.799714 -16.390115 4.161277 -32.471903 39.863409 -8.528042 0.194977 -3.944032 -6.041666 7.125000 0.000000 0.000000 
1.793854 16.422930 11.885203 164.902425 -5.550839 -128.512913 -52.063372 -31.722405 -15.572931 6.089143 11.637406 42.090314 -7.343406 -31.204854 -44.108573 0.035800 -1.221700 -3.359000 -15.955440 34.533611 -86.163093 -3.755526 -8.757845 22.476834 -10.464867 -18.299075 -45.895457 -0.428600 4.201500 -11.644300 -7.891497 -11.785545 -29.262639 -1.406543 -6.175320 23.667642 2.166000 -6.940256 38.709698 0.065500 -2.058700 5.820000 -93.888511 6.092868 27.363256 34.906611 -35.859320 -9.089975 0.475010 0.356225 -4.222352 -7.125000 0.000000 0.000000 105.699155 -16.470035 4.483509 -32.827815 40.114481 -8.701729 0.233295 -3.919239 -6.477118 7.125000 0.000000 0.000000 
1.823823 16.427143 11.834551 164.818461 -5.386677 -128.671499 -52.210294 -31.634727 -15.232486 6.152217 11.508616 41.597715 -7.345212 -30.818891 -43.739315 0.005200 -0.464100 -1.275300 -15.931710 34.421136 -86.455205 -3.819357 -8.954071 23.030344 -10.346774 -17.735172 -45.945412 -0.418400 4.151700 -11.503800 -8.219192 -11.558127 -26.280618 -1.523711 -5.829858 23.220514 3.379360 -7.565881 38.140518 0.111300 -2.229200 5.812500 -92.685200 4.371951 28.255794 34.952110 -35.966654 -9.103273 0.447947 0.329781 -3.626551 -7.125000 0.000000 0.000000 105.993511 -15.687984 4.334284 -32.882151 40.236371 -8.759709 0.205479 -3.846201 -6.366354 7.125000 0.000000 0.000000 
1.853505 16.427143 11.787730 164.837378 -5.178366 -128.555845 -52.282911 -31.547567 -15.114019 6.176019 11.418760 41.172430 -6.958908 -30.134602 -44.107972 0.084900 -1.879900 -5.173800 -16.112204 34.073336 -87.007892 -3.853926 -9.185031 23.600108 -10.192587 -17.086184 -46.019591 -0.358600 3.847300 -10.647500 -7.288268 -11.195602 -25.143867 -1.667635 -5.625505 23.203684 2.900996 -6.791893 34.858310 0.091300 -2.024000 5.357300 -92.029517 3.044602 28.654995 35.050475 -36.123062 -9.159029 0.441267 0.307638 -2.980482 -7.125000 0.000000 0.000000 105.934136 -15.270742 4.604896 -32.888510 40.197845 -8.760287 0.239677 -3.811619 -6.156669 7.125000 0.000000 0.000000 
1.881081 16.426664 11.741579 164.743212 -4.884116 -128.311904 -52.393986 -31.557341 -15.068084 6.186771 11.355096 40.808452 -6.502786 -29.415720 -44.599854 0.242900 -3.171300 -8.756100 -16.247169 33.472799 -87.626991 -3.872393 -9.512857 24.308708 -9.986220 -16.358313 -45.824608 -0.386600 3.993000 -11.056900 -6.647871 -10.917350 -24.428194 -1.994775 -5.482370 22.505695 3.653151 -7.527087 37.095210 0.137500 -2.237700 5.725300 -91.397973 2.114944 29.198775 35.172026 -36.421303 -9.279060 0.423191 0.280376 -2.542343 -7.125000 0.000000 0.000000 105.854225 -15.161438 4.756583 -32.704679 40.010889 -8.660355 0.281655 -3.792690 -5.812148 7.125000 0.000000 0.000000 
1.911146 16.426760 11.694471 164.798003 -4.547493 -127.995498 -52.528338 -31.665831 -15.054260 6.204413 11.316314 40.541152 -6.304544 -28.967866 -44.660004 0.207100 -2.930200 -8.084500 -16.427632 33.031310 -88.196734 -3.876048 -9.756190 24.868651 -9.827784 -15.850650 -45.596641 -0.453900 4.321900 -11.984200 -4.787846 -10.428452 -24.999693 -2.150965 -5.398636 22.771267 2.783687 -6.743941 33.226932 0.117000 -2.117800 5.156500 -91.146401 1.306965 29.357613 35.569782 -36.904130 -9.545696 0.410676 0.270652 -2.458367 -7.125000 0.000000 0.000000 105.466419 -15.150959 5.512681 -32.645658 39.814128 -8.600431 0.256069 -3.838950 -5.547759 7.125000 0.000000 0.000000 
1.942935 16.426089 11.646692 164.700897 -4.202178 -127.847844 -52.678431 -31.738534 -14.927352 6.226912 11.266177 40.301616 -6.216814 -28.675164 -44.566391 0.191200 -2.815700 -7.766000 -16.466858 32.724274 -88.654727 -3.920720 -10.011947 25.558680 -9.655037 -15.229193 -45.435754 -0.528100 4.657100 -12.933000 -4.684761 -10.222369 -24.572313 -2.026085 -5.294632 22.558351 2.822212 -7.004704 33.442842 0.063100 -2.231500 5.170600 -90.642640 0.403838 29.726807 35.906824 -37.364576 -9.785256 0.397664 0.262177 -2.634579 -7.125000 0.000000 0.000000 105.425184 -15.178627 6.079069 -32.484238 39.631184 -8.520795 0.132073 -3.912959 -5.218553 7.125000 0.000000 0.000000 
1.973861 16.422259 11.594796 164.651602 -4.024104 -128.169924 -52.963131 -31.720723 -14.376440 6.253074 11.161792 40.007779 -5.998311 -28.300381 -44.691110 0.329200 -3.687500 -10.199100 -16.256426 32.580753 -88.855417 -4.043883 -10.352941 26.523829 -9.426097 -14.396822 -45.468630 -0.567900 4.826600 -13.414600 -4.165181 -9.964562 -21.846050 -2.035875 -5.095627 21.973176 2.983771 -7.154366 32.381855 0.015400 -2.333000 5.086700 -90.033759 -1.285323 29.849931 35.974918 -37.559905 -9.831860 0.390674 0.250875 -2.959042 -7.125000 0.000000 0.000000 105.204367 -14.520081 6.617877 -32.039031 39.154133 -8.275693 0.049941 -3.937573 -4.851380 7.125000 0.000000 0.000000 
2.005650 16.416706 11.544050 164.875026 -3.865839 -127.779970 -53.084023 -31.732774 -14.327469 6.258652 11.110767 39.751722 -5.795381 -27.937050 -44.856442 0.490200 -4.489200 -12.457300 -16.245933 32.091612 -89.308754 -4.130202 -10.724856 27.416872 -9.169554 -13.642253 -45.522924 -0.574100 4.852200 -13.487500 0.223229 -9.259218 -23.895128 -2.973866 -5.191557 22.266895 3.456534 -6.751006 30.817051 0.300100 -2.167800 4.816400 -90.380530 -1.462534 29.230813 36.317972 -37.984021 -10.064427 0.388196 0.265415 -3.515128 -7.125000 0.000000 0.000000 104.280748 -14.893723 8.070344 -31.834528 38.616942 -8.095344 0.033999 -3.998312 -4.565702 7.125000 0.000000 0.000000 
